<svg width="136" height="229" viewBox="0 0 136 229" fill="none" xmlns="http://www.w3.org/2000/svg">
<path d="M190.745 42.8815C205.536 58.7522 214.645 79.0805 216.646 100.683C218.647 122.285 213.427 143.94 201.803 162.258C190.179 180.576 172.808 194.521 152.41 201.909C132.012 209.297 109.74 209.711 89.0819 203.087C68.4236 196.462 50.5459 183.173 38.2488 165.3C25.9517 147.427 19.9298 125.981 21.1263 104.319C22.3227 82.6575 30.67 62.0045 44.8606 45.5948C59.0512 29.1851 78.2838 17.9454 99.5461 13.6362L110.489 67.6312C101.175 69.519 92.7493 74.4428 86.5327 81.6316C80.316 88.8203 76.6593 97.868 76.1352 107.357C75.611 116.847 78.2491 126.242 83.6362 134.072C89.0233 141.902 96.8551 147.723 105.905 150.625C114.955 153.528 124.712 153.346 133.648 150.109C142.584 146.873 150.194 140.764 155.286 132.739C160.378 124.715 162.665 115.228 161.788 105.764C160.912 96.3009 156.921 87.3955 150.441 80.4429L190.745 42.8815Z" fill="#FF647C"/>
</svg>
