<svg width="197" height="195" viewBox="0 0 197 195" fill="none" xmlns="http://www.w3.org/2000/svg">
<path d="M170.431 29.8816C185.222 45.7522 194.331 66.0805 196.332 87.6826C198.334 109.285 193.113 130.94 181.489 149.258C169.865 167.576 152.494 181.521 132.096 188.909C111.699 196.297 89.4266 196.712 68.7682 190.087C48.1099 183.462 30.2321 170.173 17.9351 152.3C5.63798 134.427 -0.383905 112.981 0.812551 91.3191C2.00901 69.6576 10.3562 49.0046 24.5469 32.5949C38.7375 16.1851 57.9701 4.94548 79.2324 0.636263L90.1755 54.6312C80.8609 56.519 72.4356 61.4429 66.2189 68.6316C60.0023 75.8204 56.3456 84.868 55.8214 94.3575C55.2973 103.847 57.9354 113.242 63.3224 121.072C68.7095 128.902 76.5414 134.723 85.5914 137.626C94.6414 140.528 104.398 140.346 113.334 137.11C122.27 133.873 129.88 127.764 134.972 119.739C140.064 111.715 142.351 102.228 141.475 92.7644C140.598 83.301 136.607 74.3956 130.128 67.443L170.431 29.8816Z" fill="#EDEEF1"/>
</svg>
