<svg width="91" height="92" viewBox="0 0 91 92" fill="none" xmlns="http://www.w3.org/2000/svg">
<path d="M0.0556307 47.4249C-0.324544 37.3703 2.64084 27.4737 8.48735 19.2848C14.3339 11.096 22.7313 5.07758 32.3644 2.17214C41.9975 -0.733293 52.3222 -0.361631 61.7215 3.22892C71.1208 6.81947 79.0637 13.4261 84.3063 22.0141C89.5489 30.6021 91.795 40.6864 90.6929 50.6876C89.5907 60.6888 85.2026 70.042 78.2157 77.2823C71.2289 84.5226 62.0379 89.2411 52.0823 90.6987C42.1268 92.1564 31.9689 90.2709 23.1996 85.3375L40.2532 55.024C42.3149 56.1838 44.703 56.6271 47.0435 56.2844C49.3841 55.9417 51.5449 54.8324 53.1875 53.1302C54.8301 51.428 55.8618 49.229 56.1209 46.8778C56.38 44.5265 55.8519 42.1557 54.6194 40.1366C53.3869 38.1176 51.5195 36.5644 49.3097 35.7202C47.0999 34.8761 44.6726 34.7887 42.4079 35.4718C40.1431 36.1548 38.1689 37.5698 36.7944 39.495C35.4198 41.4202 34.7227 43.7469 34.8121 46.1107L0.0556307 47.4249Z" fill="#EDEEF1"/>
</svg>
