<svg width="251" height="251" viewBox="0 0 251 251" fill="none" xmlns="http://www.w3.org/2000/svg">
<path d="M131.662 0.814893C159.229 2.20152 185.557 12.6921 206.523 30.6436C227.49 48.5951 241.91 72.9935 247.525 100.018C253.141 127.042 249.635 155.165 237.556 179.984C225.477 204.802 205.507 224.913 180.775 237.167C156.043 249.421 127.945 253.126 100.882 247.702C73.8189 242.277 49.319 228.03 31.2197 207.191C13.1204 186.353 2.44391 160.099 0.862375 132.543C-0.719163 104.987 6.88359 77.6846 22.4799 54.9119L73.9594 90.1686C66.1645 101.55 62.3647 115.196 63.1552 128.968C63.9456 142.74 69.2816 155.861 78.3275 166.276C87.3733 176.691 99.6181 183.812 113.144 186.523C126.67 189.234 140.713 187.382 153.074 181.258C165.435 175.133 175.415 165.082 181.452 152.678C187.489 140.274 189.242 126.218 186.435 112.712C183.628 99.2056 176.421 87.0115 165.943 78.0395C155.464 69.0675 142.305 63.8244 128.528 63.1314L131.662 0.814893Z" fill="#EDEEF1"/>
</svg>
