<svg width="665" height="276" viewBox="0 0 665 276" fill="none" xmlns="http://www.w3.org/2000/svg">
<mask id="mask0" mask-type="alpha" maskUnits="userSpaceOnUse" x="0" y="0" width="665" height="329">
<rect x="0.239746" width="664.76" height="329" rx="50" fill="#BFEBF3"/>
</mask>
<g mask="url(#mask0)">
<circle cx="553.456" cy="324.493" r="101.967" fill="#00C48C"/>
<circle r="13.5205" transform="matrix(-1 0 0 1 431.207 209.005)" fill="#FFCF5C"/>
<path d="M727.389 145.445C735.721 154.386 740.853 165.838 741.98 178.008C743.108 190.177 740.167 202.377 733.619 212.697C727.07 223.016 717.284 230.872 705.793 235.034C694.302 239.197 681.754 239.43 670.116 235.698C658.478 231.966 648.407 224.479 641.479 214.41C634.552 204.342 631.159 192.26 631.833 180.056C632.507 167.853 637.21 156.218 645.204 146.974C653.198 137.729 664.033 131.397 676.011 128.97L682.176 159.388C676.929 160.452 672.182 163.225 668.68 167.275C665.178 171.325 663.118 176.422 662.823 181.768C662.527 187.114 664.014 192.407 667.048 196.818C670.083 201.229 674.495 204.509 679.594 206.143C684.692 207.778 690.189 207.676 695.223 205.853C700.257 204.029 704.544 200.588 707.413 196.067C710.281 191.546 711.57 186.202 711.076 180.871C710.582 175.539 708.334 170.522 704.684 166.606L727.389 145.445Z" fill="#FF647C"/>
<path d="M535.559 165.626C541.796 165.94 547.753 168.313 552.497 172.375C557.241 176.437 560.504 181.957 561.775 188.072C563.045 194.187 562.252 200.55 559.519 206.165C556.786 211.781 552.267 216.331 546.671 219.104C541.075 221.877 534.718 222.715 528.594 221.488C522.471 220.26 516.927 217.037 512.832 212.322C508.737 207.606 506.321 201.666 505.963 195.431C505.606 189.196 507.326 183.019 510.855 177.866L522.503 185.843C520.739 188.419 519.879 191.506 520.058 194.622C520.237 197.739 521.444 200.707 523.491 203.064C525.538 205.421 528.308 207.032 531.369 207.645C534.429 208.258 537.607 207.839 540.404 206.454C543.2 205.068 545.459 202.794 546.825 199.987C548.19 197.181 548.587 194 547.952 190.944C547.317 187.888 545.686 185.129 543.315 183.099C540.944 181.069 537.967 179.883 534.85 179.726L535.559 165.626Z" fill="#133996"/>
<path d="M686.249 86.4853C678.108 91.1858 668.645 93.074 659.323 91.858C650 90.6419 641.338 86.3894 634.675 79.7575C628.011 73.1257 623.718 64.4838 622.458 55.1676C621.197 45.8513 623.041 36.3792 627.703 28.2154L648.781 40.2523C646.764 43.7845 645.967 47.8828 646.512 51.9136C647.057 55.9445 648.915 59.6836 651.798 62.553C654.681 65.4223 658.429 67.2623 662.462 67.7884C666.496 68.3146 670.59 67.4976 674.113 65.4638L686.249 86.4853Z" fill="#CB1D5B"/>
<path d="M562.412 129.604C562.198 123.94 563.869 118.364 567.163 113.751C570.456 109.138 575.187 105.747 580.614 104.111C586.041 102.474 591.857 102.683 597.152 104.706C602.447 106.729 606.922 110.451 609.876 115.289C612.829 120.127 614.094 125.808 613.473 131.442C612.853 137.076 610.381 142.345 606.444 146.424C602.508 150.503 597.331 153.161 591.722 153.983C586.113 154.804 580.391 153.742 575.451 150.962L585.058 133.885C586.219 134.538 587.565 134.788 588.883 134.595C590.202 134.402 591.419 133.777 592.345 132.818C593.27 131.859 593.851 130.62 593.997 129.296C594.143 127.971 593.846 126.636 593.151 125.498C592.457 124.361 591.405 123.486 590.16 123.01C588.915 122.535 587.548 122.485 586.272 122.87C584.996 123.255 583.884 124.052 583.109 125.137C582.335 126.221 581.942 127.532 581.993 128.864L562.412 129.604Z" fill="#FC643F"/>
</g>
</svg>
